<?xml version="1.0" encoding="utf-8"?>
<!-- Generator: Adobe Illustrator 22.0.1, SVG Export Plug-In . SVG Version: 6.00 Build 0)  -->
<svg version="1.1" id="Layer_1" xmlns="http://www.w3.org/2000/svg" xmlns:xlink="http://www.w3.org/1999/xlink" x="0px" y="0px"
	 viewBox="0 0 313.9 288.6" style="enable-background:new 0 0 313.9 288.6;" xml:space="preserve">
<style type="text/css">
	.st0{fill:#FFC534;}
	.st1{fill:#01BCF1;}
	.st2{fill:#8CE6F4;}
	.st3{fill:#445AA8;}
	.st4{fill:#FF6E00;}
	.st5{fill:#14BEF0;}
	.st6{fill:#FFFFFF;}
	.st7{fill:#7850FF;}
	.st8{fill:#32E1FF;}
	.st9{fill:#734A9C;}
	.st10{fill:#0177CB;}
	.st11{fill:#29318F;}
</style>
<title>order</title>
<g>
	<g id="Layer_1_1_">
		<path class="st0" d="M120.4,137.5l-4.2-58c0.3-15.8,11.2-29.2,37.9-30.2c19.3-0.7,39.5,4.9,41.3,22.3c1,9.7,9.3,89.6,9.3,89.6
			s-51.3,18.4-65,9.8C126.1,162.3,120.4,137.5,120.4,137.5z"/>
		<path class="st1" d="M131.6,35c-0.8-5.2-2.6-14.5-2-16.1c0.8-2.1,3.2-3.7,5.1-4.6c3.7-1.8,15.9-4.2,37.7-2c0,0,2.6,0.3,3.6,7.5
			c0.6,4,1.2,8.8,0.6,13.3c-0.3,2.5-1.2,2.4-3.4,3.5c-0.7,0.4-2.8,1.1-3.6,0.8c-0.5-0.1,0-2.3-0.5-2.4c-9.5-2.5-19.7-2.2-29,1
			c0.2,0.5,0.2,1,0,1.4c-1.3,0.4-4,0.4-5.9,0.2C133.4,37.6,131.9,37.2,131.6,35L131.6,35z"/>
		<path class="st0" d="M171.4,51c-1.4,0.1-1.7,2.7-4.7,4c-6.2,2.8-10.2,2.5-16.4,1.9c-5.7-0.5-8.9-2.6-9.1-7.5l-0.9-13.7
			c2.9-2.2,15.8-4.6,25.2-2.1c1.9,0.4,4.4,0.8,4.5,1.6C170.4,39.4,170.8,47.4,171.4,51z"/>
		<path class="st2" d="M118.5,83.7L77,95.7l1.8,5.7l38.6-8.2L118.5,83.7L118.5,83.7z"/>
		<path class="st3" d="M172.8,109.2c-0.3-1.7-1.2-2.5-0.8-4.8c0.3-1.6-1.2-2.4-0.8-4.5c0.3-1.4-0.5-2.7-0.7-3.8l-0.7-4
			c-0.5-2.6-2.2-4.4-6.3-4.4c-2,0-4,0-5.9,0c-1-0.1-2.1-0.1-3.1,0.1c-4.2,0.8-6.2-0.6-10.1,0.3c-2.7,0.7-5.2-0.4-8.3,0.5
			c-2.5,0.8-5.2,0.4-7.7,0.7c-6,0.6-11.8,0.3-16.4,2.1c-2.2,0.8-3.7,0.3-5.3,0.9c-2.1,0.8-3.9,0.4-5.5,1.1c-0.8,0.4-1.2,0.1-1.8,0.4
			c-1.2,0.6-1.9,0.4-2.7,0.6c-11.1,2.7-18.5,5.7-22.6,8.1c-3.1,1.8-3.9,3.9-3.9,7.1c0,2.7,0.8,5.8,1.3,9.2c0.4,2.8,0.8,5.7,1.2,8.7
			c1.9,14.7,3.9,30.1,3.9,30.1l21.4,43.9h80.8l1.7-40.6C179,146.9,175.5,125.3,172.8,109.2L172.8,109.2z"/>
		<path class="st4" d="M76.7,98.2c0,0-5-17.9-4.4-20.1c0.4-2,1.8-3.8,3.8-4.7c4-2.2,22.6-11,73.7-9.6c0,0,4.8-0.3,5.7,5.2
			c0.9,5.5,2.1,16.2,2.1,16.2S108.3,83.9,76.7,98.2L76.7,98.2z"/>
		<path class="st5" d="M173.2,111.3c0,0,6,37.1,7.5,49.6l5.3,34.4l-37.1,6.1c0,0-11.8-77.8-12.7-81.1c-1-3.9,7.1-5.2,7.1-5.2
			L173.2,111.3z"/>
		<path class="st6" d="M174.4,131.6c-1.1,0.6-2.7,0.3-3.9,0.8c-2.8,0.9-5.7,1.5-8.6,1.9c-2.8,0.5-5.4,1.3-8.3,1.4
			c-0.5,0-3.8-0.4-3.6,0.7c-0.1-0.4-0.5-0.6-0.9-0.5c-1.5,0.5-3,0.8-4.5,0.9c-0.4,0-0.8,0.3-0.8,0.7s0.3,0.7,0.8,0.7
			c1.5-0.1,2.9-0.3,4.3-0.8c0.4,0.4,1,0.5,1.6,0.4c0.4,0,1.3-0.6,1.7-0.6c0.7-0.1,1.4-0.1,2.1,0c1.4-0.1,2.8-0.4,4.1-0.8
			c3.6-1,7.6-1,11.1-2c1-0.4,1.9-0.8,2.9-1.1c1.1-0.2,1.7,0,2.7-0.5c0.4-0.2,0.5-0.6,0.3-0.9S174.7,131.4,174.4,131.6L174.4,131.6z
			 M154.8,144.1c-0.8,0.1-2.2,0-3,0.3c-0.3,0.1-0.4,0.3-0.6,0.4c-0.4,0.2-0.8,0.3-1.2,0.3c-0.7,0.1-0.8,0.3-1.4,0.7
			c-0.8,0.5-1.5,0.1-2.4,0.2c-0.9,0.1-0.6,1.5,0.4,1.3c0.7-0.1,1.3,0.5,2,0.3c0.7-0.2,0.8-0.7,1.4-0.9c0.6-0.2,1.1-0.1,1.6-0.4
			c0.5-0.2,0.3-0.5,1.3-0.8c0.6-0.1,1.2-0.1,1.7-0.1C155.8,145.4,155.8,144,154.8,144.1L154.8,144.1z M175.6,138.4
			c-1.5,0.8-3.2,0.7-4.7,1.4c-1.5,0.7-3.1,1.3-4.7,1.5c-0.9,0-1.7,0.1-2.6,0.3c-0.4,0.2-0.7,0.6-1,0.8c-1,0.4-1.8-0.1-2.8,0.4
			c-0.8,0.4-0.1,1.6,0.8,1.2c0.2-0.1,1.2,0.4,1.6,0.3c0.8-0.1,0.6-0.4,1.3-0.7c1.9-0.7,3.9-1.2,6-1.4c1.3-0.2,1.4-0.4,2.5-1.1
			c0.8-0.5,0.2-0.3,1.6-0.4c1-0.2,2-0.6,2.8-1.1C177.2,139.1,176.4,137.9,175.6,138.4L175.6,138.4z M153.6,122.7
			c-1.4,0-2.7,0.1-4.1,0.4c-0.1-0.7-0.2-1.4-0.3-2.1c-0.1-1.3-2.4-1.3-2.3,0c0.1,0.9,0.2,1.8,0.3,2.6c-1.1,0.3-2.1,0.6-3.1,0.9
			c-0.6,0.2-0.9,0.8-0.7,1.3c0.2,0.5,0.8,0.8,1.3,0.7c0.9-0.2,1.9-0.5,3-0.8c0.2,0.7,0.4,1.3,0.6,2c-0.1,0.4,0,0.8,0.3,1l0.1,0.1
			c0.5,0.4,1.2,0.4,1.6,0c0.1-0.1,0.1-0.1,0.2-0.2c0.5-0.8-0.2-2-0.4-2.8c-0.1-0.2-0.1-0.4-0.2-0.6c1.2-0.3,2.4-0.4,3.7-0.4
			C155,124.9,155,122.8,153.6,122.7z"/>
		<path class="st0" d="M91.6,86.2c-1.1-3.6-2-7.2-2.8-10.9c-1-4.8-9.3-3.9-8.2,0.9c0.9,4.3,2,8.6,3.4,12.8c0.6,2,3.5,2.8,5.4,2.1
			C91.7,90.2,92.3,88.1,91.6,86.2z"/>
		<path class="st3" d="M91.6,158.9c-2.4-17.6-5.3-35.1-8.5-52.6c-0.9-4.8-8.9-2.8-8,2c2.9,15.7,5.5,31.4,7.7,47.2
			C83,156.6,88.7,158.3,91.6,158.9L91.6,158.9z"/>
		<path class="st7" d="M143.3,115.3c0,0,14.9-0.9,18.6-0.8c3.7,0.2,5.3,0.5,7.5,0.4c1.5-0.1,2.9-0.4,4.3-0.9l-0.4-2.7L143.3,115.3z"
			/>
		<path class="st7" d="M165.9,180.5c0.5-35.9,4.2-66.5,13.4-101.4c0.1-0.8,0.5-1.5,1-2.2c0.8-0.8,1.9-1.5,3-1.9
			c26.9-8.8,60.2-20.1,88.7-20.8c-14.7,25.4-23.4,57-23.8,86.7c0,0-0.1,6-0.9,8.4c-0.8,2.4-74.7,40-77.7,39
			C166.6,187.3,165.9,180.5,165.9,180.5L165.9,180.5z"/>
		<path class="st7" d="M270.3,53.4c-15.9,1.6-31.6,4.6-46.9,8.8c-7.7,2.1-15.4,4.4-23,6.8c-3.5,1.1-7,2.2-10.5,3.3
			c-2.8,0.9-6.6,1.5-9.1,3.1c-3.3,2.1-3.4,7.3-3.9,10.5c-1,5.6-2.7,11.2-3.8,16.8c-2.4,12.4-3.7,25-5.9,37.4
			c-2.7,15.1-4.3,29.7-1.9,44.9c0.4,2.4,4.4,1.4,4.1-1c-2.1-13.2-1-26.1,1.3-39.2c2.1-11.7,3.7-23.5,5.5-35.3
			c0.8-5.5,2-10.9,3.4-16.3c1.1-4.1,1.5-8.5,2.8-12.5c0.9-2.9,4-3.2,6.9-4.1c3.2-1.1,6.4-2.1,9.6-3.1c6.9-2.2,13.9-4.3,21-6.3
			c16.6-4.7,33.4-8.3,50.7-10C273,57,273,53.2,270.3,53.4L270.3,53.4z"/>
		<path class="st7" d="M191.7,101.9c-0.8,2.3,0.1,4.3,1.3,6.4c1.2,1.9,3.4,3.2,5.9,3.4c2.5,0.2,4.9-0.5,6.8-1.9
			c2.6-1.8,4.2-4.5,4.4-7.4c0.1-2.9-0.8-5.7-3.5-7.3c-1.5-1.1-3.4-1.7-5.4-1.7c-1.8,0.1-4.7,0.9-6.1,2.2
			C193.8,96.8,192.8,98.4,191.7,101.9L191.7,101.9z"/>
		<path class="st0" d="M191.2,100.4c-0.8,2.3,0.1,4.3,1.3,6.4c1.2,1.9,3.4,3.2,5.9,3.4c2.5,0.2,4.9-0.5,6.8-1.9
			c2.6-1.8,4.2-4.5,4.4-7.4c0.1-2.9-0.8-5.7-3.5-7.3c-1.5-1.1-3.4-1.7-5.4-1.7c-1.8,0.1-4.7,0.9-6.1,2.2
			C193.4,95.4,192.4,97,191.2,100.4L191.2,100.4z"/>
		<path class="st7" d="M223.8,91c-0.8,2.3,0.1,4.3,1.3,6.4c1.2,1.9,3.4,3.2,5.9,3.4c2.5,0.2,4.9-0.5,6.8-1.9
			c2.6-1.8,4.2-4.5,4.4-7.4c0.1-2.9-0.8-5.7-3.5-7.3c-1.5-1.1-3.4-1.7-5.4-1.7c-1.8,0.1-4.7,0.9-6.1,2.2
			C225.9,85.9,224.9,87.5,223.8,91L223.8,91z"/>
		<path class="st0" d="M223.4,89.5c-0.8,2.3,0.1,4.3,1.3,6.4c1.2,1.9,3.4,3.2,5.9,3.4c2.5,0.2,4.9-0.5,6.8-1.9
			c2.6-1.8,4.2-4.5,4.4-7.4c0.1-2.9-0.8-5.7-3.5-7.3c-1.5-1.1-3.4-1.7-5.4-1.7c-1.8,0.1-4.7,0.9-6.1,2.2
			C225.5,84.5,224.5,86.1,223.4,89.5L223.4,89.5z"/>
		<path class="st7" d="M185.5,133.6c-0.8,2.3,0.1,4.3,1.3,6.4c1.2,1.9,3.4,3.2,5.9,3.4c2.5,0.2,4.9-0.5,6.8-1.9
			c2.6-1.8,4.2-4.5,4.4-7.4c0.1-2.9-0.8-5.7-3.5-7.3c-1.5-1.1-3.4-1.7-5.4-1.7c-1.8,0.1-4.7,0.9-6.1,2.2
			C187.7,128.6,186.7,130.2,185.5,133.6z"/>
		<path class="st0" d="M185.1,132.2c-0.8,2.3,0.1,4.3,1.3,6.4c1.2,1.9,3.4,3.2,5.9,3.4c2.5,0.2,4.9-0.5,6.8-1.9
			c2.6-1.8,4.2-4.5,4.4-7.4c0.1-2.9-0.8-5.7-3.5-7.3c-1.5-1.1-3.4-1.7-5.4-1.7c-1.8,0.1-4.7,0.9-6.1,2.2
			C187.2,127.1,186.3,128.7,185.1,132.2z"/>
		<path class="st7" d="M217.7,122.7c-0.8,2.3,0.1,4.3,1.3,6.4c1.2,1.9,3.4,3.2,5.9,3.4c2.5,0.2,4.9-0.5,6.8-1.9
			c2.6-1.8,4.2-4.5,4.4-7.4c0.1-2.9-0.8-5.7-3.5-7.3c-1.5-1.1-3.4-1.7-5.4-1.7c-1.8,0.1-4.7,0.9-6.1,2.2
			C219.8,117.6,218.8,119.3,217.7,122.7L217.7,122.7z"/>
		<path class="st0" d="M217.2,121.3c-0.8,2.3,0.1,4.3,1.3,6.4c1.2,1.9,3.4,3.2,5.9,3.4c2.5,0.2,4.9-0.5,6.8-1.9
			c2.6-1.8,4.2-4.5,4.4-7.4c0.1-2.9-0.8-5.7-3.5-7.3c-1.5-1.1-3.4-1.7-5.4-1.7c-1.8,0.1-4.7,0.9-6.1,2.2
			C219.4,116.2,218.4,117.8,217.2,121.3L217.2,121.3z"/>
		<path class="st7" d="M184.5,168.1c-0.8,2.3,0.1,4.3,1.3,6.4c1.2,1.9,3.4,3.2,5.9,3.4c2.5,0.2,4.9-0.5,6.8-1.9
			c2.6-1.8,4.2-4.5,4.4-7.4c0.1-2.9-0.8-5.7-3.5-7.3c-1.5-1.1-3.4-1.7-5.4-1.7c-1.8,0.1-4.7,0.9-6.1,2.2
			C186.6,163,185.6,164.6,184.5,168.1z"/>
		<path class="st0" d="M184,166.6c-0.8,2.3,0.1,4.3,1.3,6.4c1.2,1.9,3.4,3.2,5.9,3.4c2.5,0.2,4.9-0.5,6.8-1.9
			c2.6-1.8,4.2-4.5,4.4-7.4c0.1-2.9-0.8-5.7-3.5-7.3c-1.5-1.1-3.4-1.7-5.4-1.7c-1.8,0.1-4.7,0.9-6.1,2.2
			C186.2,161.6,185.2,163.2,184,166.6z"/>
		<path class="st7" d="M216.6,157.2c-0.8,2.3,0.1,4.3,1.3,6.4c1.2,1.9,3.4,3.2,5.9,3.4c2.5,0.2,4.9-0.5,6.8-1.9
			c2.6-1.8,4.2-4.5,4.4-7.4c0.1-2.9-0.8-5.7-3.5-7.3c-1.5-1.1-3.4-1.7-5.4-1.7c-1.8,0.1-4.7,0.9-6.1,2.2S217.7,153.7,216.6,157.2
			L216.6,157.2z"/>
		<path class="st0" d="M216.2,155.7c-0.8,2.3,0.1,4.3,1.3,6.4c1.2,1.9,3.4,3.2,5.9,3.4c2.5,0.2,4.9-0.5,6.8-1.9
			c2.6-1.8,4.2-4.5,4.4-7.4c0.1-2.9-0.8-5.7-3.5-7.3c-1.5-1.1-3.4-1.7-5.4-1.7c-1.8,0.1-4.7,0.9-6.1,2.2
			C218.3,150.7,217.3,152.3,216.2,155.7L216.2,155.7z"/>
		<path class="st5" d="M70.6,152.1c0,0,85.6,31.1,96.6,33.1c11,2.1,95.8-45.6,95.8-45.6l2.2,80.4c0,0,0.6,4.1-3,5.6
			c-16.6,7-91,40.7-94.2,42.1c-2.3,1-6,1-24.8-5.2c-16-5.3-57.6-22.5-69.4-27.6c-3.2-1.4-3.2-6.6-3.2-6.6L70.6,152.1z"/>
		<path class="st8" d="M167.2,185.2c0,0,7.7,3.6,9.1,5.5c1.3,1.8,7.4,3.9,8.8,5.4s7.5,4.5,12,7.3c2.6,1.6,5.9,2.1,8.9,1.2l9.9-5.9
			c0,0,5-2.1,8-4.8c3-2.7,16.4-8.7,18.7-11.1c2.3-2.4,19-10.5,21.1-13.1c2.2-2.6,16.6-9.3,16.6-9.3l5.9-3.5l6.5-3.8
			c0.3-0.3,0.6-0.7,0.6-1.1c0-0.5-2.2-1.2-2.2-1.2l-20.9-8.2l-1.5-0.6l-5.6-2.2L167.2,185.2z M167.2,185.2c0,0-15.5,11.7-21.9,19.2
			c-0.9,1-2.5,1.3-3.8,0.7c-4-2.2-12.1-9.2-25.3-11.2c-4-0.6-7.8-1.9-10-3.4c-2.3-1.6-5.1-2.2-8-2.7c-7.4-1.3-7.7-3.8-13.9-4.7
			c-21.8-3.1-40.3-11.9-47.5-14.2c-1.2-0.4-1.6-1.2,0.1-2.4c7.2-4.7,26.4-16.7,33.7-14.4L167.2,185.2z"/>
		<path class="st8" d="M76.8,154.2l-3.3-1.1c-1.3-0.4-2.5-0.9-2.9-1l-16.2-4.8c-0.8-0.3-1.6-0.6-2.4-0.7c-1.2-0.1-1.1-0.6-2.5-0.8
			c-0.8-0.1-1.5-0.7-2.3-0.7c-1.2,0-1.5-0.7-2.9-0.9c-2.9-0.3-5.2-1.5-6.9-2c-1.7-0.5-1.4-1.3,0.4-2.1c1.7-0.8,3.9-2.2,6.7-3.1
			c1.6-0.5,1.9-1,3-1.3c1.4-0.5,1.9-1,3-1.3c0.9-0.3,1.8-0.7,2.6-1.2l4.2-1.9c7.6-3.4,14.4-6.5,15.1-6.8L76.8,154.2z M253.7,144.1
			l9.4-4.5l30.9-11.5c0,0-41.6-15.6-43-15.9c0,0-1.3,9.2-1.7,12.1c-0.3,2.6-0.8,9.5-0.8,9.5L253.7,144.1z"/>
		<path class="st9" d="M263.1,139.6l-14.8-5.8l-0.5,13.1L263.1,139.6L263.1,139.6z M70.6,152l5.4-3.8l0.9,5.9L70.6,152z"/>
		<path class="st5" d="M170.6,187.5c-0.2-2.7-5.4-2.7-5.2,0c2,25.2,1.6,50.6-1,75.7c-0.3,2.7,4.9,2.7,5.2,0
			C172.2,238.1,172.5,212.7,170.6,187.5L170.6,187.5z"/>
		<path class="st0" d="M232.8,177.7c-0.6,0-1.1,0.4-1.1,1c0,0.5,0.5,1,1.1,1c0.6,0,1.1-0.4,1.1-1
			C233.9,178.1,233.4,177.7,232.8,177.7z M198.1,189.2h-0.7c-0.6,0-1.1,0.4-1.1,1c0,0.5,0.5,1,1.1,1h0.7c0.6,0,1.1-0.4,1.1-1
			C199.2,189.7,198.7,189.2,198.1,189.2L198.1,189.2z M94.7,193.9h-0.7c-0.6,0-1.1,0.4-1.1,1c0,0.5,0.5,1,1.1,1l0,0h0.7
			c0.6,0,1.1-0.4,1.1-1C95.8,194.3,95.3,193.9,94.7,193.9z M300.6,223.1c-21.3-9.3-43.4-17-66-23.1c-2.1-0.6-3,2.4-0.9,3
			c22.4,6,44.2,13.6,65.2,22.8C300.8,226.6,302.5,223.9,300.6,223.1L300.6,223.1z M264.5,278.4c-15.1-15.5-48-38.5-70.3-46
			c-2-0.7-2.9,2.3-0.9,3c21.4,7.2,53.8,30.4,68.3,44.6C263,281.4,265.9,279.9,264.5,278.4z M231.8,225.5l-16.7-4.7
			c-2.1-0.6-3,2.4-0.9,3l16.7,4.7C233,229,233.9,226,231.8,225.5L231.8,225.5z M77.3,204.3l-15.4,7.5c-1.9,0.9-0.2,3.6,1.7,2.7
			l15.4-7.5C80.9,206,79.2,203.3,77.3,204.3z M27.3,151.7h-1.1c-0.6,0-1.1,0.4-1.1,1c0,0.5,0.5,1,1.1,1h1.1c0.6,0,1.1-0.4,1.1-1
			C28.4,152.1,27.9,151.7,27.3,151.7L27.3,151.7z M250.5,78.7c-0.6,0-1.1,0.4-1.1,1s0.5,1,1.1,1s1.1-0.4,1.1-1
			S251.1,78.7,250.5,78.7z M301.9,92.1c-0.6,0-1.1,0.4-1.1,1c0,0.5,0.5,1,1.1,1c0.6,0,1.1-0.4,1.1-1
			C302.9,92.6,302.5,92.1,301.9,92.1z M41.8,104.9c-0.7-2.5-2.5-4.5-5-5.8c-3.1-1.6-7-1.6-10.1,0c-0.6,0.3-1.1,0.6-1.5,1.1
			c-0.2,0.1-0.3,0.3-0.5,0.4c-1.2,1.1-2.1,2.5-2.5,3.9c-0.8,2.5-0.5,5.2,1,7.4c1.8,2.8,5,4.5,8.5,4.5c2.8,0,5.5-1,7.5-2.8
			C41.6,111.4,42.7,108,41.8,104.9z"/>
		<path class="st4" d="M43.7,64.9c-5.1-4.9-10.9-9.2-17.3-12.6c-7.1-3.8-13.6,6.2-6.5,10.1c5.4,2.9,10.4,6.6,14.7,10.8
			C40.3,78.6,49.4,70.4,43.7,64.9z"/>
		<path class="st0" d="M245,20.5c-2.6-1-5.5-0.9-8.1,0.1c-3.4,1.4-5.3,4.7-4.6,8c-0.5,3.7,2.1,7.1,6,8.2c3,0.9,6.5-0.5,8.5-2.5
			c1.8-1.7,2.8-4,2.9-6.3C250.1,24.8,248.2,21.8,245,20.5L245,20.5z"/>
		<path class="st0" d="M244.5,30.7c-1.6-2.7-3.8-5.2-6.5-7.1c-0.5-0.4-1.3,0.3-0.8,0.7c2.6,1.9,4.8,4.2,6.3,6.9
			C243.9,31.7,244.8,31.2,244.5,30.7z M36.2,102.2c-3.7,2.3-6.5,5.4-10.1,7.9c-0.5,0.4,0,1.2,0.5,0.8c3.5-2.4,6.4-5.6,10.1-7.9
			C37.3,102.7,36.8,101.9,36.2,102.2z"/>
		<path class="st0" d="M43.7,64.9c-2.2-2.1-4.5-4.1-6.9-6c-3.2-2.5-11.5,6.5-9,8.3c2.5,1.8,4.8,3.8,6.9,5.9
			C40.3,78.6,49.4,70.4,43.7,64.9z"/>
		<path class="st4" d="M34.2,58.3c-4.6,0.9-7,5.3-7.4,8.5c-0.1,0.6,0.7,0.9,0.9,0.3c0.8-2.6,2.5-7,6.8-7.9
			C35.1,59,34.8,58.2,34.2,58.3z"/>
		<path class="st1" d="M197.6,25.5c-4.8,0.7-9.9,1.6-14.3,0.6c-3.4-0.9-7-1-10.4-0.4l-0.1-0.1c0.1-1.4,1.4-1.5,2.4-1.6
			c2.9-0.2,3.9-1.4,3.6-4c0-0.5,0.2-1,0.5-1.4c0.7-2.9,2.8-3.7,5.8-3.8c3.7,0,7.3-1.4,11.1-0.5C193.7,18.4,194.1,22.1,197.6,25.5
			L197.6,25.5z"/>
		<path class="st10" d="M179.2,18.6c0.9,5.4,0.9,5.4-4.7,6.3c-0.6,0.2-1.2,0.4-1.8,0.7c-4.1-0.5-5.5-2.1-4.6-4.8
			c0.7-1.8,2.3-1.5,3.7-1.9L179.2,18.6z"/>
		<path class="st11" d="M197.6,25.5c-4.2-1.1-5.1-7.9-1.5-11.1C200.8,15.9,201.6,21.9,197.6,25.5z"/>
	</g>
</g>
</svg>
