<?xml version="1.0" encoding="utf-8"?>
<!-- Generator: Adobe Illustrator 22.0.1, SVG Export Plug-In . SVG Version: 6.00 Build 0)  -->
<svg version="1.1" id="Layer_1" xmlns="http://www.w3.org/2000/svg" xmlns:xlink="http://www.w3.org/1999/xlink" x="0px" y="0px"
	 viewBox="0 0 400 400" style="enable-background:new 0 0 400 400;" xml:space="preserve">
<style type="text/css">
	.st0{opacity:0.2;fill:#18BEF0;enable-background:new    ;}
	.st1{fill:#18BEF0;}
	.st2{fill:#FFC534;}
	.st3{fill:#FFA000;}
	.st4{fill:#7850FF;}
	.st5{fill:#FF6E00;}
	.st6{opacity:0.53;fill:#FFFFFF;enable-background:new    ;}
	.st7{opacity:0.54;fill:#FF6E00;enable-background:new    ;}
</style>
<title>phr</title>
<g>
	<g id="Layer_1_1_">
		<path class="st0" d="M79,282.8c0,0,218.1-27.7,297.4,0.7c38.2,13.7,0.1,56.4-8.8,62.7c-32.7,23.2-122.5,71.9-214.4,30.9
			C118,361.5,78,368.6,44.8,357.7C20,349.5,6,333.4,6,318.9C6.1,286.4,79,282.8,79,282.8z"/>
		<path class="st1" d="M339.7,209.9c-0.8-24-0.9-66.9-1.2-68.9c0.3-9.5-9.4-13.4-14.4-15.1c-9.4-3.1-17.5-4.2-25.2-6.2
			c-5.8-1.8-13.3-3.6-19.1-5.1c-9.6-2.7-15.5-4.4-25.2-6.8c-8.4-2-19.4-4.8-28-7.5c-0.7-0.2-1.5-0.2-2.2,0.1
			c-8.5,3.8-12.9,4.9-29,12.8c-17.7,8.7-37.4,21-56.8,31.8c-18,10.1-29.5,16.2-46.7,27.6c-4.5,2.4-7.4,6.7-7.1,12.8
			c0.5,10.7-0.2,25.4,0.1,27c0.7,18.2,1.7,36.4,3,54.5c0.8,12.6,1.8,25.1,3.2,37.7c0.3,3.9,1.2,7.7,2.4,11.4
			c-0.1,5.7,2.2,11.2,6.4,15.3c1.7,3.2,4.6,5.8,8.1,7.2c7.4,3.2,16.2,4.2,24.1,6.1c9.5,2.4,19,5.1,28.4,8.2
			c10.8,3.6,21.4,7.6,31.8,12.1c5.6,2.4,11.1,5.2,17,6.3c2.5,1.7,5.7,2,8.5,1.2c0.3-0.1,0.6-0.2,0.9-0.2c1.1,0.2,2.2-0.1,2.8-1.1
			h0.1c5.9-2.7,10.6-7.5,15.6-11.4l19.1-15.3c12.8-10.3,25.6-20.4,38.3-30.8c12.8-10.3,25.1-20.7,36.9-31.7c11-10.3,9-14.5,9.4-28.6
			C340.7,252.5,340,220.6,339.7,209.9L339.7,209.9z"/>
		<path class="st1" d="M211.4,332l-2-33.6l-2-33.6c-0.6-10.2-0.6-20.7-3-30.8c-1.8-7.6-5.4-15.2-11.5-20.6
			c-6.7-5.8-15.9-7.7-24.5-10L99,184.2c-2.2-0.6-3.2,2.6-0.9,3.2l62.7,17.5c9.7,2.7,21.8,4.4,29.5,11c7.9,6.9,10.8,17.2,12,27
			c2.4,20.6,2.7,41.5,4,62.1c1.2,19.8,4.4,40.6,1.8,60.5c-0.3,2.1,3.3,2.1,3.6,0C213.1,354.3,212,343.2,211.4,332L211.4,332z"/>
		<path class="st2" d="M166,178.3c0,0,0.5-37.3-0.2-53.9C164.5,95.9,152.1,66,152.1,66l98.6-57.4c0,0,8.3,45.1,8.3,77.5v37.7
			c0,0,0,3.7-0.1,5.8c0,1-2.8,2.5-2.8,2.5l-89.4,56.7L166,178.3z"/>
		<path class="st1" d="M270.5,119.4c-0.3-0.5-0.6-0.8-1.1-1.2c-2-1.4-4.4-2.1-7-2c-3.1,0.1-5.2,4.9-1.8,6.3l1.7,0.7
			c-6.5,6.2-14.7,10.6-22.2,15.3l-30.2,18.9l-30.2,18.9c-4.2,2.6-8.6,6.8-13.3,8.3c0-0.1,0-0.4,0-0.5c0-1.3-0.5-6.7-0.6-8
			c-0.9,0.6-2,1.5-4.2,2.9c-3,1.8-4.9,3.6-7.6,5.1c-0.3,0.1-0.6,0.4-0.8,0.7c-2.1,1.9-0.7,6.3,2.6,7.8c3.1,1.4,7.4,0.1,11.1-0.8
			c5-1.3,9.8-5.5,14-8.1l32.5-20.3l32.5-20.3c8.8-5.5,18-10.6,24.8-18.5C271.9,123.1,272.2,120.5,270.5,119.4z"/>
		<path class="st3" d="M152.1,66.1l98.6-57.4c-0.6-0.7-1.7-1-2.5-0.5c-1.6,0.7-97.6,56.3-98.1,56.9c-0.4,0.7-0.4,1.7,0,2.4
			c0.4,1,11.3,36.1,11.8,43.2c0.5,7.1,1.3,20.4,1.1,24c-0.2,3.6,0.2,36.8,0.2,39.2c0,2.4-0.8,15.1,1.4,15.1h2.2
			c0,0-0.8-10.1-0.8-11.3c-0.1-1.3,0.1-39.3,0.1-39.3s0-19.4-2.1-30.1C161.8,97.7,157.5,74.9,152.1,66.1L152.1,66.1z"/>
		<path class="st4" d="M188.7,71.7c-0.3-3.6-3.1-6.5-6.9-7.4c-4.6-0.8-8.3,3.3-8.2,7.5c0.1,3,2,5.6,5,6.8c1.3,0.6,2.7,1,4.1,0.7
			C186.5,78.6,189.1,75.4,188.7,71.7z M202.4,97.5c0-0.1,0-0.4,0-0.5c0.1-3-0.4-5.8-1.4-8.7c-0.6-1.5-1.8-3.7-3.5-4.4
			c-0.2-0.2-0.5-0.5-0.8-0.7c-3.2-2.6-7.8-2.9-11.2-0.6c-10.2,6.7-10.1,19.5-10.2,29.8c0,1.5,1.4,2.7,3,2.7c0.4,0,0.8-0.1,1.3-0.2
			c0.6,0,1.2-0.1,1.7-0.5c6.7-4.3,13.6-8.4,19.6-13.7c0.2-0.1,0.3-0.4,0.4-0.5C202.2,99.7,202.8,98.5,202.4,97.5L202.4,97.5z
			 M213.8,115.6c-1.2,0.2-2.2,0.7-3.1,1.4c-2,1.5-2.6,2.3-5.2,3.1c-1.6,0.6-1.9,0.1-3.2,1.2c-1.4,1.1-1.8,2.7-3.6,3.6
			c-2.8,1.2-5.3,0.6-8,2.4c-4.5,3.1-9.8,4.6-14.4,8c-1.8,1.3,0,4.2,1.8,3c2.5-1.9,5.3-3.6,8.2-4.8c1.4-0.4,2.6-0.8,3.9-1.3
			c2.4-1.2,1.8-2.3,5.2-3.3c1.7-0.5,3.4-0.2,5-0.8c2.6-1.1,3.5-3.4,6.1-4.4c1.1-0.5,2.3-0.4,3.4-1c1.7-1,2.6-3.2,4.7-3.6
			C217.1,118.5,216,115.3,213.8,115.6L213.8,115.6z M245.9,101.2c0,0.1-1.9,0.2-2.4,0.4c-0.9,0.2-1.8,0.8-2.4,1.5
			c-0.2,0.2-0.4,0.6-0.7,0.7s-0.8,0-1.2,0c-0.8,0.1-1.7,0.6-2,1.3c-0.8,1.9,1.8,3.4,3,2h0.2c0.3,0,0.6,0,0.8-0.1
			c0.4-0.1,0.8-0.2,1.2-0.4c0.8-0.5,1.1-1.4,1.9-1.9c0.8-0.5,2.2-0.2,3.1-0.7c0.9-0.4,1.7-1.2,2-2
			C250.2,100.1,246.7,99.1,245.9,101.2L245.9,101.2z M227.1,126.9c-0.5,1-1.9,1-2.8,1.2c-1.1,0.2-2.1,0.6-3.1,1.2
			c-0.4,0.4-0.7,0.6-1.1,1.1c-0.5,0.6,0,0.5-0.9,0.6c-0.5,0-1.1,0.1-1.6,0.4c-0.2,0-0.3,0-0.5,0.1c-3,0.8-4.6,3-7.5,3.8
			c-4.2,1.3-7.6,4-11.4,6.4c-4,2.6-8,5.7-12.2,8c-2.6,1.4-5.1,1.8-7,4.2c-1.4,1.8,1.7,3.4,3.1,1.7c1.4-1.7,6-3.1,7.9-4.4
			c3.4-2.1,6.7-4.4,10-6.5c3.7-2.4,6.9-4.6,11.1-5.9c2.5-0.8,3.9-2.9,6.4-3.8c0.6,0.2,1.4,0.1,1.8-0.5h0.2c0.3,0,0.6,0,0.9-0.1
			c0.5-0.1,1.2-0.4,1.6-0.6c1.1-0.7,1.1-1.7,2.4-2c2.2-0.6,4.5-0.7,5.6-2.9C231.1,126.7,228.1,124.9,227.1,126.9L227.1,126.9z
			 M251.6,114.1c-2.2-0.4-2.8,1.1-4.5,1.8c-1.1,0.5-2,0.7-3.1,1.2c-1.4,0.7-2.6,1.4-4,2.3c-0.8,0.6-1.1,1.5-0.4,2.4
			c0.5,0.7,1.5,1,2.2,0.6c1.9-1.2,3.8-2.1,5.9-3c0.6-0.1,1.3-0.5,1.9-0.7c0.3-0.2,1.5-1.1,1.1-1.1
			C252.8,117.8,253.8,114.6,251.6,114.1L251.6,114.1z"/>
		<path class="st5" d="M239.9,34.4c-2.2,1.1-4.3,2.1-6.5,3.2c-0.1-2.3-0.2-4.4-0.3-6.7c-0.2-3.6-6.1-2.5-5.9,1.1
			c0.2,2.9,0.3,5.8,0.3,8.7c-3.2,1.7-6.2,3.4-9.3,5.2c-3.3,1.9-0.7,7,2.5,5.1c2.2-1.3,4.4-2.5,6.6-3.8c-0.1,1.8-0.1,3.6-0.3,5.3
			c-0.2,3.6,5.7,4.2,5.9,0.5c0.2-3.1,0.3-6.1,0.3-9.1c3-1.5,6-3.1,9-4.5C245.8,37.8,243.2,32.7,239.9,34.4L239.9,34.4z"/>
		<path class="st1" d="M314.5,129.9c-1.8-1.3-3.6,1.7-1.8,3c2.5,1.9-12,9.6-13.4,10.5l-12.9,7.2L262,164.5
			c-7.6,4.4-15.3,8.8-22.5,13.8c-7,4.9-13.2,10.6-20.7,14.9c-0.3,0.2-0.6,0.5-0.7,0.8c-8.3,4.6-21.2,11.4-30.5,6.1
			c-2-1.2-3.8,1.8-1.8,3c10.9,6.3,25.1-1.1,34.6-6.4c0.3-0.2,0.6-0.5,0.7-0.8c9.1-5.2,16.7-12.5,25.5-18.2
			c9.9-6.4,20.4-12,30.7-17.9l31.6-17.9C313.3,139.3,320.9,134.4,314.5,129.9L314.5,129.9z"/>
		<path class="st2" d="M104.8,100.8c-5.9-3.6-12.2-6.4-18.9-8.4c-2.2-0.7-3.6,2.5-1.4,3.1c6.3,1.9,12.3,4.6,18,8
			C104.5,104.6,106.7,102,104.8,100.8z M124.9,94l-9.4-17.7c-1.1-1.9-4.1-0.2-3.1,1.7l9.4,17.7C122.8,97.8,126,96,124.9,94z
			 M120.4,230.5c-0.9,0.1-1.7,0.8-1.7,1.8c0.1,0.8,0.7,1.5,1.7,1.5c0.9-0.1,1.7-0.8,1.7-1.8C122,231.2,121.4,230.5,120.4,230.5z
			 M156.2,210.5c-0.7-0.6-1.8-0.6-2.5,0l-1.4,1.3c-0.7,0.7-0.7,1.8,0,2.4c0.7,0.6,1.8,0.7,2.5,0l1.4-1.3
			C156.9,212.2,156.9,211.2,156.2,210.5z M314.2,108c-5.6,3.7-10.1,8.6-13.2,14.1c-1.1,1.9,2,3.7,3.1,1.7c2.8-5.2,7-9.6,12-12.9
			C317.9,109.8,316.1,106.9,314.2,108L314.2,108z M92.8,203.9c-6.4,0.1-12.8,1.9-18.1,5.2c-1.9,1.2-0.1,4.2,1.8,3
			c4.9-3,10.5-4.6,16.3-4.8C95.1,207.2,95.1,203.9,92.8,203.9z M293.3,60.5c-4.2-3.8-11.8,0.8-10.3,5.9c0.3,0.8,1.4,1.3,2.3,1
			c0.8-0.2,1.3-1.1,1.2-1.9c-0.5-1.9,2.7-4,4.3-2.7c1.8,1.5-0.8,4.8-3,4.2s-3.2,2.6-0.9,3.2C292.5,71.9,297.8,64.4,293.3,60.5z"/>
		<path class="st1" d="M331.8,256.2c0,0-3.4-88-3.4-94.2c0-6.1,0.8-12.9-4.5-14.5c-5.4-1.5-87.6,54.2-98.9,61.1
			c-11.3,6.9-8.8,11.4-8.8,11.4l0.7,16.8c-1.8,0.2-3.1,1.8-2.8,3.4l0,0c1.3,7.7,1.9,15.6,1.9,23.4c-0.1,1.3,0.8,2.4,2.2,2.6
			l1.8,42.5c-1.6,0-2.8,1.2-3,2.7l0,0c-0.2,7.2-0.1,14.5,0.2,21.7c0.1,1.5,1.5,2.9,3.2,2.7c0.2,0,0.5,0,0.7-0.1l0.7,17.5
			c0,0,2.2,8.7,8.9,4.2c3.6-2.5,93.7-72,98.7-80.4C334,268.4,331.8,256.2,331.8,256.2L331.8,256.2z"/>
		<path class="st6" d="M323.4,224.7c-4.2-10.6-17.8-23.3-30.3-15c-0.3,0.2-0.5,0.5-0.5,0.8c-10.4,6.4-11.6,20.1-11.8,31.1
			c-0.2,12.2-0.1,30.4,11.8,38.4c11.9,8,23-1.4,27.4-12C325.5,254.8,329,238.6,323.4,224.7z M312,276.4c-7.1,6.7-17.2,5.1-22.8-2.6
			c-4.3-6.2-5.3-14.3-5.8-21.5c-1.1-13.1-2.2-35.3,13.4-41.2c0.4-0.1,0.7-0.5,0.7-1c6.3-2,13.4,1.3,17.8,5.9
			c5.1,5.5,7.7,12.7,8.3,19.8c0.4,6.9-0.3,13.7-2.3,20.3C319.5,263.1,317.4,271.3,312,276.4L312,276.4z"/>
		<path class="st5" d="M342.3,281.7c-1.7-1.5-3.3-3.1-5-4.6c4.7-15,5.2-32.2,5.4-47.2c0.2-11.3-0.8-23.3-6.6-32.9
			c3.4-5.3,6.7-10.8,10-16.3c1.9-3.1-3.1-6.3-5-3.2c-2.8,4.8-5.8,9.6-8.8,14.4c-2-2.3-4.2-4.3-6.6-5.9c-1.8-2.3-3.9-4.3-6.4-5.8
			c-4-2.4-8.5-4.8-13.2-5c-0.9-0.2-1.9-0.4-2.8-0.5c-0.2-0.1-0.4-0.2-0.7-0.2c-19.3-1.7-34.1,16.4-41.1,34.3c-1.4-1-2.6-2-3.9-3.1
			c-0.2-0.1-0.3-0.2-0.5-0.4c-2.6-2.5-5.5-4.8-8.6-6.8s-6.5,2.6-3.4,4.6c3.2,2,6,4.3,8.5,6.9c0.3,0.4,0.6,0.6,1.1,0.7
			c1.6,1.3,3.2,2.4,4.9,3.6c-0.4,1.3-0.7,2.6-1.1,3.8c-3.3,13.7-3,27.8-1.3,41.5c1.7,13.4,3.5,28.4,10.5,39.9c1.3,2.1,2.7,4,4.5,5.8
			l-4.6,8.6c-0.1,0.1-0.1,0.4-0.2,0.5c0,0.1-0.1,0.1-0.1,0.2c-1.6,3.3-3.5,6.5-5.5,9.5c-2.1,3.1,2.8,6.2,5,3.2
			c2.3-3.4,4.4-7.1,6.2-10.8c0-0.1,0-0.1,0.1-0.1l3.9-7.2c13.3,8.8,31.7,4.4,44.6-6.7c6-5.5,10.8-12.1,13.6-19.5l2.5,2.4
			C340.5,288,345,284.4,342.3,281.7L342.3,281.7z M275.8,203c3-4.9,6-9.7,10.8-12.8c3.5-2.1,7.2-3.7,11.2-4.8
			c9.6-1.3,17.9,4.6,24.4,11.6c1.5,1.5,2.7,3.2,3.9,5c-4.1,6.3-8.4,12.6-12.9,18.8c-0.3-0.2-0.7-0.4-1.1-0.6
			c-4.1-1.9-9.7-1.8-13.1,0.7c-3.3,2.5-5.7,5.9-7,9.7c-4.7-4-9.6-7.8-14.8-11.3c-2.3-1.7-4.9-3.1-7.3-4.6
			C271.5,210.6,273.5,206.7,275.8,203L275.8,203z M277.6,295.9c-6.3-7.6-8.2-18.8-9.8-28.4c-1.6-10.3-2.8-20.8-2.4-31.2
			c0.2-5.5,1.1-10.9,2.6-16.2l2.3,1.5c6.9,4.5,13.4,9.4,19.5,14.7c0.2,0.1,0.3,0.2,0.5,0.4c-0.4,2.9-0.7,5.6-0.7,8.4
			c-0.1,6.4,0.1,15.1,4.4,20.6L277.6,295.9z M324.1,285.3c-7.9,13.8-28.5,23.8-42.1,14.5l16.7-30.7c5.5,2.3,12-0.4,15-5.5
			c0.1-0.2,0.3-0.6,0.4-0.8c4.5,4.5,9.2,9,13.9,13.5C327.1,279.5,325.8,282.4,324.1,285.3L324.1,285.3z M331.8,256.2
			c-0.4,4.6-1.2,9.3-2,13.9c-4.2-4.2-8.4-8.3-12.7-12.5c-0.2-0.2-0.5-0.5-0.7-0.6c1.6-6.2,1.7-13.2,1.8-18.8v-1.7
			c0.2-0.6,0.3-1.2,0.2-1.8c-0.1-2.3-0.3-4.4-0.6-6.7c-0.1-1-0.4-1.8-0.8-2.6c4.2-5.8,8.2-11.6,12.2-17.7c2.1,5.5,3.4,11.2,3.7,17.1
			C333.6,235.3,332.9,245.9,331.8,256.2L331.8,256.2z"/>
		<path class="st7" d="M296.2,263.6c-3.4-8.7-4.5-17.9-3.4-27.1c0.2-2.4-9.6-8.9-13.7-11.9c-2.6-1.9-7.2-7-10.9-5.2
			c-2.1,1.1-0.2,0.6,0.6,1.8c0.6-0.4,9.8,7.5,10.5,8c3,2.3,10,7,10.4,7c-1.1,9.4-0.7,19.4,2.8,28.3l0,0l-15.5,29.2
			c-1.1,1.9,2.1,3.7,3.1,1.7l15.7-29.5c0.2-0.4,0.2-0.8,0.1-1.2C296.3,264.4,296.4,263.9,296.2,263.6L296.2,263.6z M328.2,274
			c-3.6-3.9-7.4-7.7-11.5-11.3c-1.7-1.5-4.2,1-2.5,2.4c4,3.6,7.8,7.2,11.4,11.2c-1.4,5.2-4.1,10.1-8,14c-0.4,0.5-4.6,5.7-7.3,7.2
			c-0.4,0.2-4.9,3.1-7.2,3.7c-0.7,0.2-0.4,1.3,0.3,1.1c2.4-0.7,7.7-2.6,8.1-2.9c3.1-2.1,5.9-4.4,8.6-6.9c4.4-4.4,7.5-9.9,9-15.8
			C329.1,275.9,328.8,275,328.2,274z M331.9,208c-0.6-2-4.1-1.2-3.5,1c5.9,19.5,3.5,39.7,0.9,59.5c-0.3,2.1,3.3,2.1,3.6,0
			C335.6,248.1,337.9,227.7,331.9,208L331.9,208z M327.3,200.2c-0.7-1.9-1.7-3.8-3-5.5c-1.3-1.5-3.2-2.7-4.3-4.3
			c-2.3-1.7-4.7-3.1-7.3-4.3c-3.7-1-7.5-1.7-11.4-1.9c-0.3,0-0.6,0.2-0.6,0.6c0,0.4,0.3,0.6,0.6,0.6l0,0c3.4,0,9.7,2.5,10.1,2.7
			c2,1.1,3.8,2.5,5.5,4c1.2,1.3,2.4,2.6,3.8,3.8c1.5,1.5,2.5,3.3,3.2,5.2C324.7,203.2,328.1,202.4,327.3,200.2L327.3,200.2z
			 M303.9,217.7c-3,0.4-6,1.2-8.1,3.3c-2,2.4-3.5,5.1-4.3,8.1c-0.5,1.4,1.8,2,2.3,0.6c0.7-2.6,2-5,3.8-7c1.8-1.9,4.5-2.5,7.1-2.7
			C306,219.6,305.4,217.5,303.9,217.7L303.9,217.7z M287.5,176.5c-13.7,5-21.9,18.5-27.3,30.7c-0.6,1.3,1.7,1.9,2.3,0.6
			c5.1-11.3,12.9-24.5,25.6-29.1C289.6,178.1,289,176,287.5,176.5z M273.2,303.6c-14.6-27.1-18.7-58-11.6-87.6
			c0.3-1.2-0.5-2.4-1.8-2.7l0,0c-0.1-0.2-0.3-0.5-0.6-0.6c-3.2-1.9-6-4.2-8.4-6.8c-2-2-3.4-4.9-6.5-5.1c-2.3-0.1-2.3,3.2,0,3.3
			c1.1,0.1,2.4,2.5,3.1,3.2c1.1,1.1,2.1,2.1,3.2,3.2c2,1.8,4.2,3.4,6.4,4.9c-7.1,30.7-2.7,62.6,12.2,90.5l0.1,0.1
			c-3.4,5.9-6.2,12.2-8.3,18.7c-0.7,2,2.7,3,3.5,1c2.2-6.7,5.2-13.2,8.9-19.4c0.1-0.2,0.2-0.5,0.2-0.7
			C273.6,304.9,273.5,304.2,273.2,303.6L273.2,303.6z M306.9,311.1c-12.8,3.9-21.7,1.4-28.4-1.8c-2-1.1-2.7,1.1-2.7,2.3
			c8.3,4,24.7,4.6,31.6,0.2C309.4,310.6,309.3,310.4,306.9,311.1z M339.7,177.4c-2.3,4.2-5.2,8-8.6,11.4c-1.6,1.5,0.9,4,2.5,2.4
			c3.6-3.7,6.7-7.7,9.2-12.1C343.8,177.2,340.8,175.5,339.7,177.4L339.7,177.4z M340.4,284.2c-0.8,1.4-2.6-1-3.1-1.5
			c-0.8-1.2-2.8-0.1-2.1,1.2c0.7,1.3,1.9,2.4,3.5,2.9c1.5,0.4,3-0.2,3.7-1.4c0.3-0.6,0-1.2-0.5-1.5
			C341.3,283.6,340.7,283.8,340.4,284.2L340.4,284.2z"/>
	</g>
</g>
</svg>
